<svg xmlns="http://www.w3.org/2000/svg" xmlns:xlink="http://www.w3.org/1999/xlink" width="1080" zoomAndPan="magnify" viewBox="0 0 810 809.999993" height="1080" preserveAspectRatio="xMidYMid meet" version="1.2"><defs><clipPath id="bc440152d1"><path d="M 410.09375 97.527344 L 712 97.527344 L 712 689 L 410.09375 689 Z M 410.09375 97.527344 "/></clipPath><clipPath id="f7b397b1bb"><path d="M 108 97.164062 L 410 97.164062 L 410 688.914062 L 108 688.914062 Z M 108 97.164062 "/></clipPath><clipPath id="b7a4b318b3"><path d="M 249.605469 322.554688 L 517.738281 322.554688 L 517.738281 355.132812 L 249.605469 355.132812 Z M 249.605469 322.554688 "/></clipPath><clipPath id="7e3e142e3b"><path d="M 252.605469 322.554688 L 514.660156 322.554688 C 516.316406 322.554688 517.660156 323.898438 517.660156 325.554688 L 517.660156 352.132812 C 517.660156 353.789062 516.316406 355.132812 514.660156 355.132812 L 252.605469 355.132812 C 250.949219 355.132812 249.605469 353.789062 249.605469 352.132812 L 249.605469 325.554688 C 249.605469 323.898438 250.949219 322.554688 252.605469 322.554688 Z M 252.605469 322.554688 "/></clipPath></defs><g id="545f51c26f"><g clip-rule="nonzero" clip-path="url(#bc440152d1)"><path style=" stroke:none;fill-rule:nonzero;fill:#226cae;fill-opacity:1;" d="M 410.542969 688.914062 L 410.542969 97.527344 C 516.011719 100.101562 600.503906 140.75 658.164062 227.597656 C 725.703125 329.339844 729.242188 437.003906 668.054688 542.507812 C 612.167969 638.855469 524.101562 684.757812 410.554688 688.925781 Z M 410.542969 688.914062 "/></g><g clip-rule="nonzero" clip-path="url(#f7b397b1bb)"><path style=" stroke:none;fill-rule:nonzero;fill:#dc2929;fill-opacity:1;" d="M 409.945312 97.527344 L 409.945312 688.914062 C 304.476562 686.339844 219.984375 645.691406 162.324219 558.84375 C 94.785156 457.101562 91.246094 349.4375 152.433594 243.933594 C 208.320312 147.589844 296.386719 101.6875 409.933594 97.515625 Z M 409.945312 97.527344 "/></g><g style="fill:#ffffff;fill-opacity:1;"><g transform="translate(336.654536, 503.682735)"><path style="stroke:none" d=""/></g><g transform="translate(405.243082, 503.682735)"><path style="stroke:none" d=""/></g></g><g style="fill:#ffffff;fill-opacity:1;"><g transform="translate(473.853477, 503.682735)"><path style="stroke:none" d="M 56.421875 -183.796875 C 75.035156 -183.796875 89.285156 -179.242188 99.171875 -170.140625 C 103.441406 -166.253906 106.882812 -161.015625 109.5 -154.421875 C 112.113281 -147.835938 113.421875 -138.4375 113.421875 -126.21875 L 113.421875 -96.265625 L 162.578125 -96.265625 L 162.578125 -148.90625 L 133.484375 -148.90625 L 133.484375 -180.890625 L 229.171875 -180.890625 L 229.171875 -148.90625 L 201.546875 -148.90625 L 201.546875 0 L 162.578125 0 L 162.578125 -64.265625 L 113.421875 -64.265625 L 113.421875 -59.625 C 113.421875 -51.09375 111.675781 -45.082031 108.1875 -41.59375 C 104.695312 -38.101562 99.65625 -36.359375 93.0625 -36.359375 C 88.988281 -36.359375 84.53125 -37.664062 79.6875 -40.28125 C 74.84375 -42.894531 70.285156 -46.332031 66.015625 -50.59375 C 61.753906 -54.863281 58.21875 -59.46875 55.40625 -64.40625 C 52.59375 -69.351562 51.1875 -74.0625 51.1875 -78.53125 C 51.1875 -83.375 52.539062 -87.539062 55.25 -91.03125 C 57.96875 -94.519531 63.398438 -96.265625 71.546875 -96.265625 L 74.453125 -96.265625 L 74.453125 -125.640625 C 74.453125 -132.617188 74.015625 -137.945312 73.140625 -141.625 C 72.265625 -145.3125 71.054688 -148.320312 69.515625 -150.65625 C 66.410156 -154.914062 61.65625 -157.046875 55.25 -157.046875 C 51.1875 -157.046875 48.132812 -156.125 46.09375 -154.28125 C 44.0625 -152.4375 43.046875 -150.0625 43.046875 -147.15625 C 43.046875 -143.28125 44.738281 -140.226562 48.125 -138 C 51.519531 -135.769531 57.289062 -134.460938 65.4375 -134.078125 L 63.109375 -107.3125 C 48.179688 -108.476562 35.96875 -112.304688 26.46875 -118.796875 C 16.96875 -125.296875 12.21875 -135.234375 12.21875 -148.609375 C 12.21875 -156.753906 14.25 -163.394531 18.3125 -168.53125 C 22.382812 -173.664062 27.765625 -177.492188 34.453125 -180.015625 C 41.148438 -182.535156 48.472656 -183.796875 56.421875 -183.796875 Z M 56.421875 -183.796875 "/></g></g><g clip-rule="nonzero" clip-path="url(#b7a4b318b3)"><g clip-rule="nonzero" clip-path="url(#7e3e142e3b)"><path style=" stroke:none;fill-rule:nonzero;fill:#ffffff;fill-opacity:1;" d="M 249.605469 322.554688 L 517.613281 322.554688 L 517.613281 355.132812 L 249.605469 355.132812 Z M 249.605469 322.554688 "/></g></g><g style="fill:#ffffff;fill-opacity:1;"><g transform="translate(315.171842, 511.571055)"><path style="stroke:none" d="M 24.5 0 L 24.5 -188.5 L 100.171875 -188.5 C 119.679688 -188.5 134.398438 -184.003906 144.328125 -175.015625 C 154.265625 -166.035156 159.234375 -153.640625 159.234375 -137.828125 C 159.234375 -126.390625 156.332031 -117.019531 150.53125 -109.71875 C 144.726562 -102.414062 136.066406 -96.828125 124.546875 -92.953125 L 124.546875 -90.25 C 130.472656 -87.664062 135.265625 -83.835938 138.921875 -78.765625 C 142.578125 -73.703125 146.035156 -66.1875 149.296875 -56.21875 L 168.125 0 L 129.828125 0 L 111.390625 -56.34375 C 109.503906 -62.007812 107.378906 -66.410156 105.015625 -69.546875 C 102.648438 -72.691406 99.640625 -74.972656 95.984375 -76.390625 C 92.335938 -77.804688 87.585938 -78.515625 81.734375 -78.515625 L 61.75 -78.515625 L 61.75 0 Z M 95.671875 -108.046875 C 113.710938 -108.046875 122.734375 -116.46875 122.734375 -133.3125 C 122.734375 -150.414062 113.710938 -158.96875 95.671875 -158.96875 L 61.75 -158.96875 L 61.75 -108.046875 Z M 95.671875 -108.046875 "/></g></g><g style="fill:#ffffff;fill-opacity:1;"><g transform="translate(90.894909, 503.682735)"><path style="stroke:none" d="M 151.515625 -61.359375 C 151.515625 -47.597656 147.003906 -36.835938 137.984375 -29.078125 C 128.972656 -21.328125 115.9375 -17.453125 98.875 -17.453125 C 86.46875 -17.453125 75.03125 -19.828125 64.5625 -24.578125 C 54.09375 -29.328125 44.007812 -37.757812 34.3125 -49.875 C 24.625 -61.988281 15.125 -79.097656 5.8125 -101.203125 L 39.265625 -114 C 47.210938 -93.257812 55.742188 -77.457031 64.859375 -66.59375 C 73.972656 -55.738281 84.34375 -50.3125 95.96875 -50.3125 C 107.21875 -50.3125 112.84375 -55.835938 112.84375 -66.890625 C 112.84375 -76.003906 109.738281 -84.050781 103.53125 -91.03125 C 96.9375 -89.476562 89.664062 -88.601562 81.71875 -88.40625 L 79.984375 -119.234375 C 91.421875 -119.816406 99.171875 -121.660156 103.234375 -124.765625 C 107.304688 -127.867188 109.34375 -132.234375 109.34375 -137.859375 C 109.34375 -143.285156 107.40625 -146.96875 103.53125 -148.90625 C 99.65625 -150.84375 95.296875 -151.8125 90.453125 -151.8125 C 84.441406 -151.8125 78.671875 -150.9375 73.140625 -149.1875 C 67.617188 -147.445312 62.238281 -145.21875 57 -142.5 L 46.234375 -171.59375 C 51.859375 -174.5 59.082031 -177.257812 67.90625 -179.875 C 76.726562 -182.488281 86.375 -183.796875 96.84375 -183.796875 C 113.320312 -183.796875 125.972656 -179.53125 134.796875 -171 C 143.617188 -162.46875 148.03125 -151.707031 148.03125 -138.71875 C 148.03125 -124.570312 142.796875 -113.132812 132.328125 -104.40625 C 133.097656 -103.4375 133.875 -102.566406 134.65625 -101.796875 C 137.175781 -101.398438 139.890625 -101.101562 142.796875 -100.90625 C 145.703125 -100.71875 149 -100.625 152.6875 -100.625 C 158.5 -100.625 163.925781 -100.960938 168.96875 -101.640625 C 174.007812 -102.316406 178.859375 -103.53125 183.515625 -105.28125 L 183.515625 -148.90625 L 164.90625 -148.90625 L 164.90625 -180.890625 L 249.828125 -180.890625 L 249.828125 -148.90625 L 222.484375 -148.90625 L 222.484375 0 L 183.515625 0 L 183.515625 -73 C 179.441406 -71.445312 175.222656 -70.425781 170.859375 -69.9375 C 166.492188 -69.457031 162.082031 -69.21875 157.625 -69.21875 C 155.5 -69.21875 153.269531 -69.316406 150.9375 -69.515625 C 151.320312 -66.796875 151.515625 -64.078125 151.515625 -61.359375 Z M 151.515625 -61.359375 "/></g></g><g style="fill:#ffffff;fill-opacity:1;"><g transform="translate(371.105229, 302.618173)"><path style="stroke:none" d="M 33.28125 1.0625 C 29.101562 1.0625 25.421875 0.21875 22.234375 -1.46875 C 19.054688 -3.164062 16.617188 -5.507812 14.921875 -8.5 C 13.234375 -11.488281 12.390625 -14.867188 12.390625 -18.640625 C 12.390625 -22.421875 13.234375 -25.804688 14.921875 -28.796875 C 16.617188 -31.785156 19.054688 -34.144531 22.234375 -35.875 C 25.421875 -37.601562 29.101562 -38.46875 33.28125 -38.46875 C 37.519531 -38.46875 41.234375 -37.617188 44.421875 -35.921875 C 47.609375 -34.234375 50.046875 -31.894531 51.734375 -28.90625 C 53.429688 -25.914062 54.28125 -22.535156 54.28125 -18.765625 C 54.28125 -13.015625 52.367188 -8.269531 48.546875 -4.53125 C 44.734375 -0.800781 39.644531 1.0625 33.28125 1.0625 Z M 33.28125 1.0625 "/></g></g><g style="fill:#ffffff;fill-opacity:1;"><g transform="translate(406.724335, 311.353047)"><path style="stroke:none" d="M 110.921875 37.875 L 0 37.875 L 0 11.5625 L 110.921875 11.5625 Z M 110.921875 37.875 "/></g></g><g style="fill:#ffffff;fill-opacity:1;"><g transform="translate(259.315142, 518.511858)"><path style="stroke:none" d="M 55.78125 -163.359375 L 55.78125 0 L 17.03125 0 L 17.03125 -163.359375 Z M 55.78125 -163.359375 "/></g></g></g></svg>